<svg xmlns="http://www.w3.org/2000/svg" version="1.2" baseProfile="tiny-ps" viewBox="221 45.84 672.53 672.53" fill="none" preserveAspectRatio="xMidYMid meet" xml:space="preserve"><title>Einradhockeyliga</title><path d="M289.83 377.5C289.83 393.83 286.45 409.86 288.87 425.49C311.5 571.97 440.67 684 590.92 684C757.2 684 892 546.78 892 377.5C892 208.22 757.2 71 590.92 71C424.63 71 289.83 208.22 289.83 377.5Z" fill="#0A0569"/><path d="M290.85 385.1C290.85 401.11 287.49 416.81 289.89 432.14C312.4 575.68 440.9 685.48 590.35 685.48C755.76 685.48 889.86 551 889.86 385.1C889.86 219.21 755.76 84.73 590.35 84.73C424.94 84.73 290.85 219.21 290.85 385.1Z" fill="url(#paint0_linear_418_675)"/><path fill-rule="evenodd" d="M520.95 511.02L479.71 534.03C478.65 534.62 477.34 534.51 476.39 533.76L470.2 528.87C469.31 528.17 468.06 528.16 466.83 528.16C466.22 528.15 465.62 528.15 465.07 528.06C462.52 527.66 459.8 524.26 460.94 520.41L456.19 516.78C455.46 516.23 454.52 516.03 453.63 516.26L403.86 528.9L398.42 525.08L401.89 521.21C402.03 521.03 402.33 520.71 402.62 520.4C402.64 520.37 402.66 520.35 402.68 520.32L403.24 519.7L404.83 520.69L454.23 509.11C455.05 508.92 455.9 509.08 456.6 509.55L465.18 515.35C470.5 512.22 475.54 515.71 474.94 518.99C474.89 519.27 474.8 519.54 474.7 519.8C474.48 520.41 474.28 520.96 474.75 521.42C475.33 521.99 476.19 522.69 476.93 523.26C477.83 523.96 479.06 524.04 480.06 523.5L519.02 502.91C520.15 502.31 521.53 502.49 522.47 503.36L525.25 505.94L520.95 511.02ZM407.34 515.12C406.01 516.26 404.99 517.5 403.24 519.7L407.34 515.12Z" fill="#0A0569"/><path d="M419.79 517.12C353.76 665.19 462.48 592.06 517.9 523.27C550.49 574.27 561.55 546.28 603.33 498.11C605.01 496.18 605.53 493.4 604.41 491.09C601.87 485.82 603.98 480.59 608.78 474.78L591.5 474.5L639.5 351.5H698.39C732.52 326.85 785.3 318.94 791.1 220.31C791.21 220.28 820.51 211.88 820 197C820 197 822.18 191.88 804.09 181.27C799.01 191.85 799.27 167.04 799.27 167.04L763.1 144.53C703.76 112.49 688.79 89.43 589.7 86.5C582.97 138.9 546.89 178.42 553.27 248.8C553.28 248.8 528.63 284.04 531.26 300.76C487.7 309.99 412.92 357.3 358.97 352.9L292.64 409.16C296.52 409.94 300.62 410.73 304.81 411.5L306.2 401.93L321.31 388.79L317.69 413.74C318.45 413.87 319.21 413.99 319.97 414.11L323.81 387.57L338.92 374.43L332.91 415.96C348.31 417.88 361.55 418.4 366.38 415.57C388.09 391.41 463.19 356.86 501.05 338.83C463.91 363.06 479.87 441.21 415.05 462.81C384.24 466.94 367.14 463.93 365.44 507.13C365.34 509.82 365.91 512.77 367.61 514.84C375.28 524.19 400.64 531.45 419.79 517.12ZM589.92 227.27C590.53 226.71 591.16 225.81 591.78 224.65C592.95 217.73 597.18 196.46 598 189.5C600 172.5 607.5 165.03 616.5 155.5C625 146.5 634.78 130.14 634.78 130.14L634.79 130.44C635.2 129.51 635.42 129 635.42 129L638.41 170.06C637.77 169.89 637.13 169.8 636.5 169.76L636.52 170.31C628.78 168.42 617.02 185.31 610.02 197.31C609.99 197.38 609.95 197.44 609.91 197.5C605.67 210.87 596.85 220.69 592.39 225.02C591.84 225.84 591.53 226.3 591.52 226.31C591.54 226.16 591.57 225.98 591.6 225.77C590.8 226.52 590.21 227.02 589.92 227.27ZM466.59 467.64C467.13 465.21 469.58 461.07 473.25 455.92C475.77 451.87 479.97 446.6 484.93 440.88C499.22 423.51 518.19 402.95 528 393C535.88 385 540 371 546.52 363.31C553.86 354.67 583.37 333.06 602.69 321.31C606.33 319.1 609.02 321.31 612.46 319.02L637.86 301.74L642.54 297.85L640.95 299.64L641.9 298.99L639.88 300.85L547.11 405.24L536.93 397.4C536.44 396.99 536.04 396.75 535.69 396.68L533.95 398.3C533.68 398.47 533.44 398.69 533.24 398.96L532.48 399.74C531.87 400.62 531.25 401.56 530.81 402.29L501.8 439.62C483.86 454.92 476.31 459.62 473.13 460.9L466.59 467.64ZM525.65 505.01C525.65 505.01 544.59 473.27 551.1 466.5C551.21 466.36 577.72 433.11 574.87 432.05C567.36 425.43 564.39 428.55 563.8 422.13L564.08 421.81C559.86 418.54 556.95 416.65 554.92 415.35C551.34 413.04 550.54 412.52 550.24 409.27L564.09 421.79L633.69 338.53C633.69 338.53 618.28 379.09 618.3 386.67L618.31 394.25C618.31 394.25 601.91 412.1 598 440.01C597.96 440.08 578.59 469.22 565.28 472.36C563.8 472.71 562.57 473.7 561.75 474.99C556.85 482.72 541.06 507.07 534.23 510.99L525.65 505.01ZM549.79 448C549.79 448 550.28 443.72 550.09 441.6C549.93 439.86 549.61 438.1 548.89 436.5C547.93 434.4 546.58 432.38 544.84 430.83C543.14 429.31 540.99 428.3 538.84 427.48C536.98 426.77 534.99 426.21 532.99 426.17C530.56 426.12 525.84 427.46 525.79 427.48C534.56 418.1 535.23 417.02 535.24 417L558.79 435.34L549.79 448ZM473.76 531.64C447.78 559.65 427.55 573.06 421.4 571.28C409.22 567.75 430.58 538.9 457.16 508.43C482.98 478.82 505.76 460.04 521.83 457.88C540.06 455.43 504.62 499.4 478.05 528.34L473.76 531.64ZM421.48 520.9C422.51 519.73 423.46 518.77 424.3 518.06C423.51 519.19 422.51 520.18 421.35 521.05C421.39 521 421.44 520.95 421.48 520.9Z" fill="white"/><g><path d="M287.63 383.84C288.01 397.42 289.26 410.75 291.34 423.76C316.81 583.72 465.92 697.08 631.2 669.8C732.74 652.93 818.46 582.23 854.71 485.93C858.35 476.43 861.65 465.41 864.28 455.6C864.86 453.04 866.06 447.83 866.64 445.26C868.88 435.39 870.46 423.89 871.64 413.85C873.06 398.9 873.36 383.82 872.77 368.81C872.64 366.33 871.94 358.08 871.79 355.59C871.4 350.45 870.41 344.93 869.88 339.79C848.18 197.44 728.21 93.29 585.16 86.31V84.98C589.26 84.94 597.78 84.53 601.71 84.62C670.87 85.01 738.7 111.59 790.77 156.99C894.4 247.76 922.4 395.69 862.17 519.05C823.01 599.49 748.36 659.65 661.6 681.25C568.3 704.75 465.4 681.27 392.29 618.85C323.97 561.78 283.29 472.45 286.3 383.84H287.63Z" fill="#0A0569"/></g><path d="M636.5 573.5C648.11 582.08 652.89 610 644 619.5C635.11 629 621.5 651.5 640.5 666.5C659.33 681.37 682.5 671.5 689.5 645.5C696.5 619.5 730 634.5 730 634.5" stroke="url(#paint1_linear_418_675)" stroke-width="5" stroke-linecap="round"/><g><path d="M642.05 664.54C650.81 671.46 660.35 672.49 668.45 669.03C676.63 665.53 683.74 657.27 687.09 644.85C689 637.75 692.81 633.22 697.58 630.62C700.67 628.93 704.06 628.11 707.4 627.82C701.16 606.79 681.68 591.44 658.61 591.44C655.57 591.44 652.59 591.71 649.69 592.22C649.97 593.4 650.21 594.57 650.4 595.75C651.2 600.57 651.35 605.49 650.68 609.89C650.02 614.25 648.52 618.33 645.83 621.21C641.55 625.78 636.22 633.41 634.22 641.53C633.23 645.56 633.08 649.62 634.18 653.47C635.28 657.29 637.67 661.08 642.05 664.54ZM658.61 693.22C686.72 693.22 709.5 670.43 709.5 642.33C709.5 639.05 709.19 635.85 708.6 632.75C705.51 632.93 702.55 633.61 699.98 635.01C696.5 636.9 693.5 640.25 691.91 646.15C688.26 659.72 680.29 669.4 670.42 673.62C660.49 677.87 649.02 676.41 638.95 668.46C633.83 664.42 630.79 659.77 629.38 654.86C627.97 649.97 628.22 645 629.36 640.34C631.64 631.09 637.56 622.72 642.17 617.79C643.92 615.92 645.16 612.95 645.74 609.14C646.31 605.36 646.2 600.98 645.47 596.57C645.29 595.48 645.07 594.4 644.82 593.33C623.42 599.35 607.72 619.01 607.72 642.33C607.72 670.43 630.51 693.22 658.61 693.22Z" fill="white"/><path d="M642.05 664.54C650.81 671.46 660.35 672.49 668.45 669.03C676.63 665.53 683.74 657.27 687.09 644.85C689 637.75 692.81 633.22 697.58 630.62C700.67 628.93 704.06 628.11 707.4 627.82C701.16 606.79 681.68 591.44 658.61 591.44C655.57 591.44 652.59 591.71 649.69 592.22C649.97 593.4 650.21 594.57 650.4 595.75C651.2 600.57 651.35 605.49 650.68 609.89C650.02 614.25 648.52 618.33 645.83 621.21C641.55 625.78 636.22 633.41 634.22 641.53C633.23 645.56 633.08 649.62 634.18 653.47C635.28 657.29 637.67 661.08 642.05 664.54ZM658.61 693.22C686.72 693.22 709.5 670.43 709.5 642.33C709.5 639.05 709.19 635.85 708.6 632.75C705.51 632.93 702.55 633.61 699.98 635.01C696.5 636.9 693.5 640.25 691.91 646.15C688.26 659.72 680.29 669.4 670.42 673.62C660.49 677.87 649.02 676.41 638.95 668.46C633.83 664.42 630.79 659.77 629.38 654.86C627.97 649.97 628.22 645 629.36 640.34C631.64 631.09 637.56 622.72 642.17 617.79C643.92 615.92 645.16 612.95 645.74 609.14C646.31 605.36 646.2 600.98 645.47 596.57C645.29 595.48 645.07 594.4 644.82 593.33C623.42 599.35 607.72 619.01 607.72 642.33C607.72 670.43 630.51 693.22 658.61 693.22Z" fill="url(#paint2_radial_418_675)"/></g><path d="M743 347.85H749.43C750.85 347.85 752.04 347.54 753.03 346.92C754.01 346.36 754.78 345.62 755.33 344.74C755.54 344.41 755.72 344.09 755.87 343.78C756.01 343.46 756.11 343.11 756.18 342.7C756.33 341.91 756.4 340.51 756.4 338.5C756.4 336.61 756.35 335.28 756.25 334.52C756.13 333.75 755.84 333.01 755.38 332.31C754.1 330.23 752.18 329.18 749.62 329.15H743V347.85ZM745.86 331.84H749.29C750.74 331.8 751.87 332.33 752.66 333.41C753.05 333.85 753.3 334.43 753.41 335.12C753.49 335.83 753.53 336.99 753.53 338.6C753.53 340.27 753.49 341.4 753.41 342.02C753.33 342.63 753.12 343.14 752.8 343.54C752.08 344.62 750.9 345.16 749.29 345.16H745.86V331.84ZM759.76 347.85H771.85V345.16H762.62V339.68H770.5V337.17H762.62V331.84H771.85V329.15H759.76V347.85ZM774.18 341.51C774.21 343.48 774.86 345.04 776.16 346.19C777.44 347.38 779.02 347.99 780.92 348C782.85 347.99 784.45 347.38 785.72 346.19C786.97 345.04 787.61 343.48 787.64 341.51V329.15H784.78V341.2C784.76 342.48 784.39 343.45 783.69 344.12C782.97 344.82 782.04 345.16 780.92 345.16C779.8 345.16 778.89 344.82 778.18 344.12C777.46 343.45 777.08 342.48 777.06 341.2V329.15H774.18V341.51ZM794.51 347.85H797.39V331.68H802.58V329.15H789.34V331.68H794.51V347.85ZM804.84 343.3L802.95 345.44C804.97 347.15 807.38 348 810.19 348C814.53 347.95 816.74 346.15 816.84 342.57C816.84 341.25 816.41 340.08 815.57 339.08C814.73 338.07 813.42 337.44 811.64 337.2C810.74 337.09 810.03 336.99 809.51 336.89C808.58 336.72 807.89 336.42 807.47 335.97C807.05 335.54 806.85 335.06 806.85 334.52C806.85 333.62 807.16 332.94 807.78 332.49C808.37 332.05 809.11 331.84 810 331.84C811.7 331.87 813.27 332.35 814.69 333.27L816.28 330.95C814.54 329.71 812.49 329.06 810.14 329C808.18 329.03 806.67 329.53 805.6 330.52C804.5 331.52 803.95 332.84 803.95 334.47C803.95 335.83 804.39 336.98 805.27 337.92C806.11 338.84 807.35 339.44 808.98 339.71C809.88 339.84 810.72 339.95 811.49 340.06C813.15 340.34 813.97 341.18 813.96 342.57C813.93 344.27 812.68 345.13 810.22 345.16C808.14 345.15 806.35 344.53 804.84 343.3ZM829.6 342.62C828.8 344.32 827.6 345.16 826 345.16C825.31 345.16 824.73 345.02 824.25 344.74C823.76 344.5 823.36 344.19 823.05 343.81C822.68 343.4 822.44 342.87 822.32 342.23C822.19 341.58 822.12 340.34 822.12 338.5C822.12 336.67 822.19 335.42 822.32 334.74C822.44 334.12 822.68 333.61 823.05 333.2C823.36 332.82 823.76 332.49 824.25 332.23C824.73 331.99 825.31 331.86 826 331.84C826.9 331.86 827.68 332.12 828.33 332.62C828.95 333.15 829.37 333.78 829.6 334.54H832.65C832.34 332.98 831.62 331.67 830.47 330.61C829.31 329.56 827.82 329.03 826 329C824.51 329.03 823.26 329.38 822.27 330.06C821.25 330.73 820.51 331.5 820.05 332.37C819.76 332.82 819.55 333.42 819.41 334.14C819.28 334.89 819.22 336.34 819.22 338.5C819.22 340.64 819.28 342.09 819.41 342.84C819.48 343.24 819.57 343.57 819.67 343.83C819.79 344.1 819.92 344.36 820.05 344.63C820.51 345.5 821.25 346.27 822.27 346.92C823.26 347.61 824.51 347.97 826 348C827.63 348 829.06 347.54 830.27 346.62C831.44 345.69 832.23 344.35 832.65 342.62H829.6ZM845.03 347.85H847.91V329.15H845.03V337.17H837.53V329.15H834.67V347.85H837.53V339.68H845.03V347.85ZM851.91 347.85H864V345.16H854.77V339.68H862.65V337.17H854.77V331.84H864V329.15H851.91V347.85Z" fill="white"/><path d="M442.25 621.78L439.55 622.71C440.41 625.23 442.05 627.2 444.48 628.61C448.25 630.76 451.1 630.29 453.01 627.22C453.7 626.05 453.94 624.82 453.73 623.52C453.51 622.21 452.7 620.99 451.3 619.86C450.57 619.32 450 618.88 449.59 618.53C448.87 617.92 448.44 617.31 448.31 616.69C448.18 616.11 448.25 615.58 448.53 615.1C449 614.32 449.61 613.88 450.37 613.78C451.11 613.72 451.86 613.9 452.62 614.35C454.07 615.25 455.18 616.45 455.94 617.97L458.51 616.75C457.64 614.78 456.2 613.18 454.2 611.93C452.49 610.95 450.93 610.63 449.5 610.97C448.03 611.28 446.88 612.16 446.05 613.6C445.35 614.78 445.13 616 445.41 617.28C445.66 618.53 446.43 619.68 447.7 620.74C448.42 621.3 449.08 621.82 449.69 622.3C450.98 623.39 451.25 624.55 450.51 625.75C449.62 627.22 448.1 627.35 445.95 626.14C444.16 625.07 442.93 623.62 442.25 621.78Z" fill="white"/><path d="M453.88 633.75L464.69 639.23L465.92 636.81L457.69 632.62L460.2 627.64L467.25 631.22L468.41 628.95L461.36 625.38L463.81 620.53L472.05 624.72L473.27 622.3L462.45 616.81L453.88 633.75Z" fill="white"/><path d="M467.88 640.63L470.5 641.82L478.34 624.54L475.72 623.35L467.88 640.63Z" fill="white"/><path d="M477.78 644.96L480.47 646.05L486.68 630.85L491.49 632.82L492.46 630.45L480.16 625.43L479.19 627.8L483.99 629.76L477.78 644.96Z" fill="white"/><path d="M502.55 636.99L497.57 652.3L500.15 653.14L506.02 635.1L503.44 634.25L500.26 635.3L499.37 638.03L502.55 636.99Z" fill="white"/><path d="M508.31 655.65C508.3 655.65 508.41 655.51 508.64 655.25C508.87 654.98 509.18 654.65 509.56 654.23C509.94 653.82 510.37 653.35 510.83 652.84C511.3 652.32 511.75 651.82 512.2 651.32C512.65 650.82 513.07 650.37 513.47 649.95C513.86 649.53 514.17 649.21 514.41 649C514.11 649.06 513.81 649.07 513.5 649.01C513.2 648.96 512.85 648.87 512.45 648.73C511.9 648.57 511.44 648.35 511.08 648.04C510.71 647.74 510.41 647.41 510.19 647.06C509.97 646.7 509.8 646.32 509.69 645.92C509.58 645.52 509.51 645.15 509.48 644.79C509.45 644.44 509.44 644.12 509.47 643.82C509.49 643.52 509.52 643.3 509.56 643.15C509.57 643.1 509.59 643.01 509.62 642.87C509.66 642.74 509.69 642.59 509.73 642.42C509.78 642.25 509.83 642.09 509.89 641.92C509.94 641.75 509.99 641.61 510.05 641.48C510.08 641.44 510.14 641.3 510.25 641.07C510.36 640.85 510.53 640.59 510.75 640.29C510.97 639.99 511.24 639.68 511.56 639.37C511.89 639.05 512.29 638.77 512.75 638.54C513.21 638.3 513.73 638.14 514.33 638.04C514.93 637.94 515.6 637.96 516.34 638.09C517.12 638.23 517.78 638.46 518.33 638.78C518.87 639.1 519.3 639.48 519.64 639.9C519.98 640.32 520.23 640.77 520.39 641.25C520.55 641.71 520.66 642.18 520.69 642.64C520.73 643.09 520.72 643.51 520.66 643.92C520.6 644.32 520.52 644.66 520.42 644.92C520.25 645.32 520.1 645.68 519.95 645.98C519.8 646.27 519.65 646.56 519.48 646.84C519.33 647.11 519.16 647.38 518.98 647.64C518.8 647.89 518.6 648.16 518.37 648.46C518.32 648.56 518.17 648.74 517.94 649.01C517.71 649.28 517.42 649.61 517.08 650C516.73 650.37 516.35 650.8 515.94 651.28C515.52 651.75 515.1 652.22 514.67 652.7C513.67 653.84 512.55 655.09 511.3 656.48L508.31 655.65ZM512.53 642.56C512.44 642.87 512.35 643.24 512.26 643.65C512.19 644.06 512.19 644.46 512.26 644.84C512.34 645.23 512.51 645.59 512.8 645.93C513.08 646.28 513.53 646.55 514.16 646.76C514.48 646.87 514.78 646.91 515.06 646.89C515.34 646.87 515.6 646.8 515.84 646.7C516.09 646.59 516.32 646.45 516.51 646.29C516.72 646.13 516.9 645.96 517.05 645.79C517.2 645.63 517.32 645.46 517.41 645.31C517.5 645.15 517.56 645.02 517.59 644.92C517.63 644.71 517.69 644.48 517.75 644.21C517.82 643.96 517.87 643.69 517.89 643.42C517.92 643.14 517.91 642.86 517.87 642.59C517.84 642.31 517.75 642.05 517.59 641.81C517.45 641.56 517.23 641.34 516.94 641.15C516.66 640.96 516.27 640.82 515.8 640.71C515.27 640.6 514.82 640.62 514.42 640.76C514.02 640.9 513.69 641.08 513.42 641.31C513.16 641.54 512.95 641.78 512.8 642.03C512.64 642.28 512.55 642.46 512.53 642.56Z" fill="white"/><path d="M521.47 659.12C521.46 659.12 521.57 658.98 521.78 658.7C522.01 658.43 522.3 658.08 522.66 657.64C523.02 657.2 523.42 656.73 523.86 656.2C524.3 655.67 524.73 655.15 525.16 654.64C525.6 654.12 526 653.64 526.36 653.2C526.73 652.77 527.02 652.43 527.25 652.19C526.97 652.28 526.67 652.31 526.36 652.27C526.05 652.23 525.69 652.15 525.28 652.03C524.73 651.89 524.27 651.67 523.89 651.39C523.52 651.11 523.21 650.8 522.96 650.45C522.71 650.11 522.53 649.74 522.41 649.34C522.28 648.95 522.2 648.57 522.14 648.22C522.1 647.87 522.09 647.54 522.1 647.25C522.11 646.95 522.13 646.73 522.16 646.58C522.17 646.53 522.18 646.43 522.21 646.3C522.24 646.16 522.27 646.01 522.32 645.84C522.36 645.67 522.4 645.5 522.44 645.33C522.48 645.16 522.53 645.02 522.58 644.91C522.6 644.86 522.66 644.72 522.75 644.48C522.86 644.26 523.01 643.98 523.21 643.67C523.41 643.36 523.67 643.04 523.99 642.7C524.31 642.36 524.69 642.06 525.13 641.81C525.57 641.56 526.1 641.38 526.69 641.25C527.28 641.12 527.96 641.12 528.72 641.22C529.5 641.34 530.16 641.54 530.71 641.83C531.26 642.12 531.71 642.47 532.07 642.88C532.43 643.27 532.7 643.7 532.88 644.17C533.07 644.64 533.19 645.11 533.25 645.56C533.32 646.01 533.32 646.44 533.28 646.84C533.24 647.25 533.17 647.59 533.08 647.86C532.95 648.27 532.8 648.62 532.66 648.94C532.52 649.25 532.38 649.55 532.24 649.83C532.09 650.11 531.93 650.38 531.77 650.64C531.61 650.9 531.42 651.19 531.19 651.5C531.14 651.59 531 651.77 530.78 652.06C530.57 652.34 530.3 652.68 529.97 653.08C529.65 653.48 529.29 653.92 528.89 654.42C528.5 654.91 528.1 655.4 527.69 655.89C526.74 657.07 525.68 658.38 524.5 659.81L521.47 659.12ZM525.1 645.84C525.02 646.17 524.96 646.54 524.89 646.95C524.83 647.36 524.84 647.76 524.92 648.14C525.02 648.53 525.21 648.89 525.52 649.22C525.82 649.55 526.28 649.81 526.91 649.98C527.22 650.08 527.52 650.11 527.8 650.08C528.09 650.04 528.36 649.96 528.6 649.84C528.84 649.72 529.05 649.57 529.25 649.41C529.45 649.24 529.62 649.07 529.75 648.89C529.9 648.72 530.01 648.55 530.1 648.39C530.18 648.23 530.23 648.11 530.25 648C530.29 647.78 530.34 647.54 530.39 647.28C530.45 647.01 530.48 646.74 530.49 646.47C530.51 646.19 530.49 645.91 530.44 645.64C530.4 645.36 530.29 645.11 530.13 644.88C529.97 644.65 529.74 644.45 529.44 644.27C529.15 644.08 528.76 643.95 528.27 643.86C527.76 643.77 527.3 643.8 526.91 643.97C526.51 644.12 526.18 644.33 525.92 644.58C525.67 644.82 525.48 645.06 525.35 645.31C525.21 645.56 525.13 645.74 525.1 645.84Z" fill="white"/><path d="M536.19 653.43L538.7 653.87C539.13 653.35 539.56 653.01 540 652.86C540.45 652.7 540.91 652.67 541.41 652.76C541.95 652.86 542.38 653.01 542.72 653.23C543.06 653.49 543.3 653.79 543.44 654.14C543.66 654.87 543.66 655.77 543.47 656.84C543.39 657.27 543.3 657.71 543.2 658.15C543.09 658.62 542.91 659.04 542.69 659.42C542.48 659.8 542.16 660.09 541.75 660.26C541.32 660.46 540.79 660.5 540.16 660.39C538.66 660.1 537.88 659.21 537.84 657.73L535.16 657.25C535.11 659.01 535.56 660.37 536.5 661.34C537.41 662.27 538.49 662.84 539.77 663.07C540.71 663.22 541.57 663.14 542.33 662.86C543.1 662.57 543.71 662.22 544.17 661.81C544.67 661.38 545.07 660.87 545.36 660.26C545.64 659.64 545.89 658.72 546.11 657.5C546.24 656.72 546.33 656.05 546.38 655.5C546.43 654.96 546.43 654.5 546.38 654.12C546.26 653.4 545.99 652.74 545.56 652.12C545.27 651.68 544.87 651.27 544.36 650.9C543.8 650.56 543.16 650.32 542.44 650.17C541.32 649.97 540.27 650.14 539.28 650.67L540.03 646.43L547.49 647.76L547.95 645.09L537.99 643.32L536.19 653.43Z" fill="white"/><path d="M301.14 408.83C338 415 357.88 415.73 362.71 412.9L359 351.5C359 351.5 356.5 350.45 355.78 350.08C352.67 348.24 349.5 345.63 345.5 342.5C327.95 328.76 303.71 305.82 294.49 302.38C291.94 301.43 285.5 297.37 274.55 296.61C249.5 294.86 190.57 348.44 244.08 386.13C266.66 397.22 284.94 405.07 301.14 408.83Z" fill="#0A0569"/><path d="M590.35 84.73C683.19 84.73 766.17 127.1 821.1 193.6C817.21 207.03 787.48 217.62 787.43 217.64C782.73 297.64 747.12 317.95 715.62 335.93C695.63 347.34 677.29 357.8 669.56 381.98C663.24 418.19 638.56 440.61 620.31 457.19C606.4 469.81 596.23 479.05 600.75 488.42C601.86 490.73 601.34 493.51 599.66 495.44C593.8 502.2 588.57 508.54 583.8 514.31L583.79 514.32L583.79 514.32C554.59 549.69 543.12 563.57 515.11 519.73C490.99 553.33 447.82 591.5 419.02 602.26C404.62 607.64 396.42 605.51 392.07 593.84C388.66 584.69 390.79 572.2 393.81 562.01C398.39 546.55 410.56 526.12 418.32 517.24C405.28 526.94 371.29 520.45 364.25 511.87C362.55 509.79 361.67 507.15 361.78 504.46C363.3 465.75 377.19 464.14 402.24 461.26H402.24C405.14 460.92 408.19 460.57 411.39 460.14C449.72 447.37 460.94 413.1 470.72 383.23C477.47 362.59 483.54 344.06 497.38 336.16C494.67 337.45 491.77 338.83 488.71 340.28L488.71 340.28C449.04 359.09 382.87 390.48 362.71 412.9C357.88 415.73 338 415 301.14 408.84C297.45 407.98 293.65 406.9 289.71 405.63C290.23 398.85 290.85 392 290.85 385.1C290.85 357.83 294.48 331.41 301.27 306.29C312.73 314.25 331.31 331.39 345.5 342.5C362.11 355.5 373.5 352.5 382.5 351C409 346.58 440.77 331.8 466.02 321.29C471.18 319.14 503 305.15 503 305.15L503.73 304.34C505.53 302.31 507.83 299.48 509.66 297.09L509.66 297.09L509.72 297.01C509.99 296.66 510.25 296.32 510.5 296C516.24 288.54 525.28 279.51 533.42 271.37C544.03 260.78 551.5 250.5 551.5 250.5C553.5 235 550.24 217.25 551.5 204.5C553.92 180.08 556.86 162.41 566 142.02C575.98 119.77 577.47 105.35 586.18 84.76C587.57 84.74 588.96 84.73 590.35 84.73ZM528.74 452.64C525.13 452.22 521.99 452.58 518.68 453.74C512.94 455.76 508.54 458.68 502.15 462.92C501.17 463.57 500.15 464.25 499.06 464.97C493.16 468.85 487.4 473.97 481.63 479.1L481.63 479.1C479.42 481.06 477.21 483.02 474.99 484.92C466.96 491.77 457.26 502.05 451.65 508.53C425.91 538.21 414.43 560.44 419.22 564.84C421.3 566.75 427.42 565.49 435.86 561.1C446.91 555.36 461.92 544.24 476.99 527.84C490.27 513.37 500.28 501.33 506.79 490.73C507.25 489.96 507.85 489.09 508.51 488.12L508.51 488.11L508.51 488.11C510.15 485.69 512.22 482.64 513.88 479.08C515.45 475.73 517.18 471.48 518.16 467.9C519.14 464.32 519.47 461.15 517.94 460.74C514.26 459.75 507.74 463.66 507.74 463.66C507.74 463.66 515.09 458.18 520.51 456.73C522.42 456.22 524.4 456.13 526.83 456.11C528.04 456.1 530.5 456.24 532.03 457.01C532.15 457.07 532.26 457.13 532.39 457.19L532.47 457.22C533.14 457.55 533.92 457.92 534.6 458.52C535.43 459.25 536.34 459.93 536.34 459.93L536.35 459.97C536.35 459.97 536.1 456.73 534.53 455.29C532.61 453.52 530.55 452.86 528.74 452.64ZM561.24 418.14C564.25 420.49 573.06 428.04 574.69 430.66C576.17 433.04 573.17 436.69 563.59 448.34C559.56 453.23 554.37 459.53 547.87 467.74C541.36 474.51 523.72 504.94 523.72 504.94L524.48 505.72C531.32 501.8 555.32 482.4 559.82 474.17C560.08 473.76 560.68 473.19 561.42 472.48C561.86 472.07 562.36 471.6 562.86 471.09C564.21 469.72 570.71 466.99 571.45 466.81C575.22 464.47 594.26 437.45 594.34 437.34C598.24 409.5 614.57 391.66 614.64 391.58L614.63 384C614.62 376.42 630.02 335.86 630.02 335.86L561.24 418.14ZM609.43 315.21C607.7 316.36 606.16 316.37 604.59 316.38C603.04 316.39 601.47 316.4 599.66 317.5C580.34 329.24 550.75 350.78 543.5 359.5C540.1 363.59 536.63 370.19 533.41 376.29C530.47 381.87 527.75 387.04 525.5 389.5C521.44 393.94 517.23 398.5 513 403.09L513 403.09L513 403.09L512.98 403.11L512.98 403.11C489.6 428.45 465.65 454.41 463.57 463.82C463.56 463.85 462.94 465.72 463.96 465.06C464.52 464.69 467.14 462.29 469.76 459.89C471.93 457.89 474.1 455.9 475.09 455.08C475.9 454.41 476.87 453.53 478.03 452.5L478.03 452.5C482.19 448.78 488.66 442.99 498.13 436.95L527.14 399.63C527.94 398.28 529.35 396.27 530.21 395.15C531.28 393.76 533.34 393.61 534.68 394.74L546.8 404.96L638.88 295.18L609.43 315.21ZM535.07 412.82C535.07 412.83 534.43 413.93 525.4 423.88C525.42 423.88 530.27 422.45 532.77 422.5C534.82 422.54 536.85 423.13 538.76 423.88C540.96 424.75 543.16 425.81 544.9 427.41C546.69 429.06 548.07 431.18 549.05 433.4C549.79 435.08 550.11 436.95 550.28 438.78C550.48 441.01 549.98 445.49 549.97 445.54L559.18 432.17L535.07 412.82ZM266.69 297.52C262.31 319 260.01 341.23 260.01 364C260.01 373.75 258.87 383.4 258.31 392.94C253.75 390.83 249.02 388.56 244.08 386.13C195.61 351.99 239.4 304.81 266.69 297.52ZM502.04 306.13C501.86 306.31 501.69 306.47 501.54 306.6C501.69 306.47 501.86 306.31 502.04 306.13ZM631.76 126.33C631.71 126.42 620.98 144.52 612.5 153.5C612.23 153.78 611.96 154.07 611.7 154.35C603.06 163.48 595.94 171.01 594 187.5C592.76 198 591.24 207.16 589.75 215.32L589.75 215.33C589.13 218.68 588.65 221.34 588.5 222.5C588.5 222.5 600.07 205.38 607 193.5C614 181.5 625.76 164.61 633.5 166.5C630.96 160.48 631.23 152.18 631.55 142.02C631.71 137.19 631.87 131.95 631.76 126.33Z" fill="#0A0569"/><g><path d="M615.86 409.29V356.73H651.54V368.23H628.76V377.01H648.23V388.51H628.76V397.79H651.54V409.29H615.86Z" fill="white"/></g><g><path d="M660.68 356.73H673.58V409.29H660.68V356.73Z" fill="white"/></g><g><path d="M713.91 409.29L697.1 382.9V409.29H684.2V356.73H695.48L712.28 383.12V356.73H725.18V409.29H713.91Z" fill="white"/></g><g><path d="M756 368.31H748.7V378.92H756C757.72 378.92 759.08 378.39 760.09 377.34C761.1 376.28 761.6 375.04 761.6 373.61C761.6 372.19 761.1 370.95 760.09 369.89C759.08 368.83 757.72 368.31 756 368.31ZM762.34 409.29L753.05 389.69H748.7V409.29H735.8V356.73H756.59C762.19 356.73 766.58 358.39 769.75 361.71C772.92 365.03 774.5 368.99 774.5 373.61C774.5 376.91 773.67 379.72 772 382.06C770.33 384.39 768.31 386.14 765.95 387.33L777.31 409.29H762.34Z" fill="white"/></g><g><path d="M802.96 376.64L798.24 390.64H807.38L802.96 376.64ZM813.2 409.29L810.77 401.41H794.63L792.05 409.29H778.56L797.65 356.73H807.6L826.69 409.29H813.2Z" fill="white"/></g><g><path d="M856.77 371.19C856.13 370.2 855.33 369.46 854.38 368.97C853.42 368.48 852.15 368.23 850.58 368.23H844.9V397.79H850.58C852.1 397.79 853.36 397.54 854.34 397.02C855.32 396.5 856.12 395.8 856.74 394.91C857.35 394.02 857.74 392.9 857.91 391.55C858.09 390.19 858.17 387.35 858.17 383.01C858.17 378.73 858.07 375.88 857.88 374.48C857.68 373.07 857.31 371.98 856.77 371.19ZM865.62 404.13C863.9 405.85 861.81 407.14 859.35 408C856.89 408.87 854.27 409.29 851.46 409.29H832V356.73H851.46C854.36 356.73 857 357.15 859.39 357.99C861.77 358.82 863.86 360.14 865.65 361.94C867.45 363.74 868.8 365.8 869.71 368.14C870.62 370.48 871.07 374.18 871.07 379.25V383.01V386.93C871.07 391.01 870.77 394.3 870.15 396.78C869.54 399.27 868.03 401.71 865.62 404.13Z" fill="white"/></g><g><path d="M611.21 469.24V448.38H597.5V469.24H584.59V416.68H597.5V436.88H611.21V416.68H624.11V469.24H611.21Z" fill="white"/></g><g><path d="M658.16 430.02C657.67 429.33 656.97 428.78 656.06 428.36C655.15 427.94 654.13 427.73 653 427.73C651.87 427.73 650.87 427.94 649.98 428.36C649.1 428.78 648.35 429.38 647.73 430.17C647.12 430.95 646.66 432.17 646.37 433.82C646.07 435.46 645.93 438.5 645.93 442.92C645.93 447.34 646.07 450.37 646.37 451.99C646.66 453.61 647.11 454.8 647.7 455.56C648.28 456.32 649.05 456.94 649.98 457.41C650.91 457.87 651.92 458.11 653 458.11C655.26 458.11 656.86 457.49 657.8 456.26C658.73 455.03 659.34 453.61 659.64 451.99C659.93 450.37 660.08 447.34 660.08 442.92C660.08 438.55 659.93 435.52 659.64 433.85C659.34 432.18 658.85 430.9 658.16 430.02ZM667.67 463.71C665.71 465.68 663.54 467.15 661.19 468.13C658.83 469.11 656.1 469.61 653 469.61C647.15 469.61 642.63 468.01 639.44 464.81C636.24 461.62 634.38 458.51 633.84 455.49C633.3 452.47 633.03 448.28 633.03 442.92C633.03 437.32 633.28 433.08 633.8 430.2C634.32 427.33 635.69 424.77 637.93 422.54C640.16 420.3 642.46 418.69 644.82 417.71C647.18 416.73 649.91 416.23 653 416.23C658.85 416.23 663.37 417.83 666.57 421.02C669.76 424.22 671.63 427.33 672.17 430.35C672.71 433.37 672.98 437.56 672.98 442.92C672.98 448.52 672.72 452.76 672.21 455.64C671.69 458.51 670.18 461.2 667.67 463.71Z" fill="white"/></g><g><path d="M700.11 469.61C694.31 469.61 689.81 468.01 686.62 464.81C683.42 461.62 681.56 458.51 681.02 455.49C680.48 452.46 680.21 448.28 680.21 442.92C680.21 437.32 680.46 433.08 680.98 430.2C681.5 427.33 682.86 424.79 685.07 422.57C687.28 420.36 689.61 418.75 692.04 417.75C694.47 416.74 697.16 416.23 700.11 416.23C705.27 416.23 709.64 417.73 713.23 420.73C716.82 423.73 719.08 428.13 720.01 433.93H706.89C706.4 431.97 705.66 430.45 704.68 429.36C703.7 428.28 702.2 427.74 700.18 427.74C699 427.74 698 427.92 697.16 428.29C696.33 428.66 695.61 429.23 695.02 430.02C694.43 430.81 693.97 432.07 693.62 433.82C693.28 435.56 693.11 438.6 693.11 442.92C693.11 447.39 693.25 450.43 693.55 452.02C693.84 453.62 694.46 455.04 695.39 456.26C696.33 457.49 697.92 458.11 700.18 458.11C702.15 458.11 703.64 457.65 704.64 456.75C705.65 455.85 706.4 454.63 706.89 453.09H720.01C719.08 458.5 716.83 462.61 713.27 465.4C709.71 468.2 705.32 469.61 700.11 469.61Z" fill="white"/></g><g><path d="M756.06 469.24L743.97 448.38L739.55 453.31V469.24H726.8V416.68H739.55V435.25L754.74 416.68H770.51L752.6 437.94L771.1 469.24H756.06Z" fill="white"/></g><g><path d="M776.41 469.24V416.68H812.09V428.18H789.31V436.95H808.77V448.45H789.31V457.74H812.09V469.24H776.41Z" fill="white"/></g><g><path d="M844.67 447.83V469.24H831.77V447.83L815.92 416.68H830L838.25 436.21L846.44 416.68H860.52L844.67 447.83Z" fill="white"/></g><g><path d="M646.9 528.66V476.1H659.8V517.16H681.84V528.66H646.9Z" fill="white"/></g><g><path d="M689.36 476.1H702.26V528.66H689.36V476.1Z" fill="white"/></g><g><path d="M746.34 523.13C744.28 525.29 741.98 526.82 739.45 527.7C736.91 528.59 734.13 529.03 731.08 529.03C725.28 529.03 720.78 527.43 717.59 524.24C714.39 521.04 712.53 517.93 711.99 514.91C711.45 511.89 711.18 507.7 711.18 502.34C711.18 496.74 711.43 492.5 711.95 489.63C712.47 486.75 713.83 484.21 716.04 482C718.25 479.79 720.55 478.18 722.93 477.17C725.32 476.16 728.03 475.66 731.08 475.66C737.32 475.66 742.12 477.33 745.49 480.67C748.86 484.01 750.88 488.14 751.57 493.06H738.6C738.06 490.99 737.22 489.49 736.09 488.56C734.96 487.62 733.29 487.16 731.08 487.16C729.95 487.16 728.95 487.37 728.09 487.78C727.23 488.2 726.5 488.8 725.88 489.59C725.27 490.38 724.81 491.59 724.52 493.24C724.22 494.89 724.08 497.92 724.08 502.34C724.08 506.77 724.22 509.81 724.52 511.48C724.81 513.15 725.41 514.58 726.33 515.76C727.23 516.94 728.82 517.53 731.08 517.53C733.63 517.53 735.4 517.01 736.39 515.98C737.37 514.95 738.02 513.95 738.34 513C738.66 512.04 738.82 510.99 738.82 509.86V509.12H731.08V498.36H751.65V505.66C751.65 510.08 751.27 513.59 750.5 516.17C749.74 518.75 748.36 521.07 746.34 523.13Z" fill="white"/></g><g><path d="M779.66 496L774.94 510.01H784.08L779.66 496ZM789.91 528.66L787.47 520.77H771.33L768.75 528.66H755.26L774.35 476.1H784.3L803.4 528.66H789.91Z" fill="white"/></g><path d="M490.14 527.51C490.14 527.51 482.4 540.16 477.56 545.74C469.18 555.38 459.65 564.12 449.38 571.71C444.91 575 440.02 577.73 435 580.09C431.89 581.56 428.75 583.37 425.33 583.66C421.09 584.02 415.34 584.74 412.78 581.34C408.85 576.1 413.17 566.05 414.73 561.78C416.27 557.55 421.36 547.83 425.69 541.48C434.99 527.87 447.31 512.1 457.68 503.76C461.45 499.53 433.26 536.55 430.14 540.81C426.14 546.01 418.27 558.93 417.6 569.28C417.44 571.69 417.68 574.81 419.63 576.23C423.15 578.78 428.5 577.11 432.66 575.86C442.23 572.98 450.13 566.02 458.12 560.01C466.14 553.99 473.66 547.23 480.5 539.89C484.06 536.07 490.14 527.51 490.14 527.51Z" fill="white"/><path fill-rule="evenodd" d="M232.34 323.51C231.9 332.62 235.53 344.63 247.74 360C282.45 403.66 372.41 403.94 372.5 403.94C368.44 409.26 363.32 413.23 357.41 416.02C339.12 419.52 292.04 410.22 292.04 410.22L292.17 410.1C263.99 401.58 246.82 391.24 244.5 389.8L244.43 389.86C213.06 369.57 217.66 342.94 232.34 323.51Z" fill="url(#paint3_linear_418_675)"/><path d="M566.02 306.39C565.24 307.79 564.44 309.49 563.65 311.54C535.18 323.43 503.96 337.36 465.5 355.5V351C500.25 334.57 529.44 321.63 556.64 310.27C557.13 310.17 557.6 309.99 558 309.71C560.69 308.59 563.36 307.48 566.02 306.39ZM709.13 251.76C709.04 253.22 709.38 254.5 710.35 255.68C710.62 256 710.96 256.24 711.33 256.41C666.29 272.17 630.98 284.58 593.5 299.4C593.57 298.01 593.41 297 593.3 296.4C593.24 296.08 593.13 295.79 592.98 295.54C629.21 281.25 664.75 268.34 709.13 251.76Z" fill="white"/><defs><linearGradient id="paint0_linear_418_675" x1="290.85" y1="385.1" x2="889.86" y2="385.1" gradientUnits="userSpaceOnUse"><stop stop-color="#648BBF"/><stop offset="1" stop-color="#3A3C98"/></linearGradient><linearGradient id="paint1_linear_418_675" x1="635.64" y1="669.98" x2="684" y2="597.5" gradientUnits="userSpaceOnUse"><stop offset="0.42" stop-color="#0A0569"/><stop offset="0.81" stop-color="#0A0569" stop-opacity="0"/></linearGradient><radialGradient id="paint2_radial_418_675" cx="662.5" cy="622" r="120.06" gradientUnits="userSpaceOnUse"><stop offset="0.18" stop-color="#FFD631"/><stop offset="0.45" stop-color="#ECAA21"/><stop offset="0.74" stop-color="#D36F0A"/></radialGradient><linearGradient id="paint3_linear_418_675" x1="194.83" y1="360.17" x2="386.62" y2="430.24" gradientUnits="userSpaceOnUse"><stop offset="0.11"/><stop offset="0.49" stop-color="#BF1B2C"/><stop offset="0.81" stop-color="#FFCC00"/></linearGradient></defs></svg>